<svg width="94" height="32" viewBox="0 0 94 32" fill="none" xmlns="http://www.w3.org/2000/svg">
    <g>
        <rect width="32" height="32" rx="8" fill="#315167"/>
        <path d="M11.5 9.5C11.5 12.5376 9.03757 15 6 15C6 11.9624 8.46243 9.5 11.5 9.5Z" fill="white"/>
        <path d="M21 17C18.2386 17 16 19.2386 16 22C18.7614 22 21 19.7614 21 17Z" fill="white"/>
        <path d="M22.5 24C22.5 21.5147 24.5147 19.5 27 19.5C27 22.4853 24.9853 24.5 22 24.5C22.1714 24.5 22.3394 24.4868 22.5 24.4614V24Z" fill="white"/>
    </g>
    <path d="M44.5454 21.9545C44.5454 22.5985 44.4318 23.1856 44.2045 23.7159C43.9773 24.2462 43.6515 24.7008 43.2272 25.0795C42.8029 25.4583 42.2954 25.7538 41.7045 25.9659C41.1136 26.1742 40.4659 26.2784 39.7613 26.2784C39.0568 26.2784 38.4053 26.1742 37.8068 25.9659C37.2121 25.7538 36.7008 25.4583 36.2727 25.0795C35.8485 24.7008 35.5227 24.2462 35.2954 23.7159C35.0682 23.1856 34.9545 22.5985 34.9545 21.9545V12.5455H38.2272V21.7955C38.2272 22.1212 38.2878 22.4129 38.4091 22.6705C38.5341 22.9242 38.7045 23.1326 38.9204 23.2955C39.1363 23.4583 39.3863 23.5398 39.6704 23.5398C40.0151 23.5398 40.3106 23.4527 40.5568 23.2784C40.803 23.1042 40.9924 22.8617 41.125 22.5511C41.2614 22.2367 41.3295 21.8712 41.3295 21.4545V12.5455H44.5454V21.9545Z" fill="#315167"/>
    <path d="M47.2251 25.9318V12.5455H50.4411V23.2159H56.4992V25.9318H47.2251Z" fill="#315167"/>
    <path d="M62.0369 25.9318V15.2273H58.9597V12.5455H68.4597V15.2273H65.2528V25.9318H62.0369Z" fill="#315167"/>
    <path d="M69.8088 25.9318V12.5455H73.0247V17.8864H77.1861V12.5455H80.4361V25.9318H77.1861V20.5682H73.0247V25.9318H69.8088Z" fill="#315167"/>
    <path d="M82.4503 19.2386C82.4503 18.1174 82.625 17.1098 82.9746 16.2159C83.3279 15.322 83.814 14.5644 84.4332 13.9432C85.0559 13.3182 85.7872 12.8447 86.6271 12.5227C87.4671 12.197 88.3829 12.0341 89.3746 12.0341C90.3472 12.0341 91.2479 12.1932 92.0766 12.5114C92.9054 12.8295 93.6367 13.2765 94.2707 13.8523C94.9085 14.4242 95.407 15.1136 95.7669 15.9205C96.1269 16.7273 96.3068 17.6212 96.3068 18.6023C96.3068 19.0606 96.282 19.4811 96.2328 19.8636C96.1874 20.2462 96.1193 20.5682 96.0294 20.8295H85.8485C85.8977 21.1705 86.0049 21.4659 86.1705 21.7159C86.3364 21.9621 86.539 22.1591 86.778 22.3068C87.0208 22.4545 87.2838 22.5606 87.5673 22.625C87.8508 22.6894 88.1383 22.7216 88.43 22.7216C88.9981 22.7216 89.5321 22.6117 90.0321 22.392C90.532 22.1686 90.9182 21.8447 91.1913 21.4205L94.2253 23.2955C93.6631 24.1818 92.864 24.8712 91.8271 25.3636C90.7943 25.8523 89.6612 26.0966 88.4275 26.0966C87.3529 26.0966 86.375 25.9166 85.4938 25.5568C84.6127 25.197 83.8643 24.697 83.2486 24.0568C82.6366 23.4166 82.1612 22.6629 81.8209 21.7955C81.4806 20.928 81.3105 20.0947 81.3105 19.2386C81.3105 19.2348 81.3105 19.2386 81.3105 19.2386H82.4503V19.2386ZM88.8406 15.3864C88.2852 15.3864 87.7948 15.5341 87.3693 15.8295C86.9477 16.125 86.6574 16.572 86.4988 17.1705H91.1479C90.932 16.4773 90.6271 16.0114 90.2292 15.7727C89.8333 15.5341 89.3785 15.3864 88.8406 15.3864Z" fill="#315167"/>
</svg>
